<mxfile host="www.draw.io" modified="2020-02-25T07:46:37.048Z" agent="Mozilla/5.0 (Windows NT 10.0; Win64; x64) AppleWebKit/537.36 (KHTML, like Gecko) Chrome/80.0.3987.122 Safari/537.36" etag="LEayznCGAVrfhxexCuIB" version="12.7.4" type="github">
  <diagram name="Page-1" id="58cdce13-f638-feb5-8d6f-7d28b1aa9fa0">
    <mxGraphModel dx="1497" dy="803" grid="1" gridSize="10" guides="1" tooltips="1" connect="1" arrows="1" fold="1" page="1" pageScale="1" pageWidth="1100" pageHeight="850" background="#ffffff" math="0" shadow="0">
      <root>
        <mxCell id="0" />
        <mxCell id="1" parent="0" />
        <mxCell id="nzN_dOYvO_QeSlVahfRb-22" style="edgeStyle=orthogonalEdgeStyle;rounded=0;orthogonalLoop=1;jettySize=auto;html=1;exitX=0.5;exitY=1;exitDx=0;exitDy=0;entryX=0.5;entryY=0;entryDx=0;entryDy=0;" edge="1" parent="1" source="nzN_dOYvO_QeSlVahfRb-23" target="nzN_dOYvO_QeSlVahfRb-30">
          <mxGeometry relative="1" as="geometry" />
        </mxCell>
        <mxCell id="nzN_dOYvO_QeSlVahfRb-23" value="User melakukan input data" style="rounded=1;whiteSpace=wrap;html=1;arcSize=24;fillColor=#ffffc0;strokeColor=#ff0000;shadow=0;comic=0;labelBackgroundColor=none;fontFamily=Verdana;fontSize=12;fontColor=#000000;align=center;" vertex="1" parent="1">
          <mxGeometry x="300" y="280" width="120" height="60" as="geometry" />
        </mxCell>
        <mxCell id="nzN_dOYvO_QeSlVahfRb-24" style="edgeStyle=elbowEdgeStyle;html=1;labelBackgroundColor=none;endArrow=open;endSize=8;strokeColor=#000000;fontFamily=Verdana;fontSize=12;align=left;" edge="1" parent="1" source="nzN_dOYvO_QeSlVahfRb-25" target="nzN_dOYvO_QeSlVahfRb-23">
          <mxGeometry relative="1" as="geometry" />
        </mxCell>
        <mxCell id="nzN_dOYvO_QeSlVahfRb-25" value="" style="ellipse;html=1;shape=startState;fillColor=#000000;strokeColor=#ff0000;rounded=1;shadow=0;comic=0;labelBackgroundColor=none;fontFamily=Verdana;fontSize=12;fontColor=#000000;align=center;direction=south;" vertex="1" parent="1">
          <mxGeometry x="345" y="185" width="30" height="30" as="geometry" />
        </mxCell>
        <mxCell id="nzN_dOYvO_QeSlVahfRb-26" style="edgeStyle=orthogonalEdgeStyle;rounded=0;orthogonalLoop=1;jettySize=auto;html=1;exitX=1;exitY=0.5;exitDx=0;exitDy=0;entryX=0;entryY=0.5;entryDx=0;entryDy=0;" edge="1" parent="1" source="nzN_dOYvO_QeSlVahfRb-27" target="nzN_dOYvO_QeSlVahfRb-42">
          <mxGeometry relative="1" as="geometry" />
        </mxCell>
        <mxCell id="nzN_dOYvO_QeSlVahfRb-27" value="Auto-Correct" style="rounded=1;whiteSpace=wrap;html=1;arcSize=24;fillColor=#ffffc0;strokeColor=#ff0000;shadow=0;comic=0;labelBackgroundColor=none;fontFamily=Verdana;fontSize=12;fontColor=#000000;align=center;" vertex="1" parent="1">
          <mxGeometry x="300" y="510" width="120" height="40" as="geometry" />
        </mxCell>
        <mxCell id="nzN_dOYvO_QeSlVahfRb-28" value="t" style="edgeStyle=orthogonalEdgeStyle;rounded=0;orthogonalLoop=1;jettySize=auto;html=1;exitX=1;exitY=0.5;exitDx=0;exitDy=0;strokeColor=#000000;" edge="1" parent="1" source="nzN_dOYvO_QeSlVahfRb-30" target="nzN_dOYvO_QeSlVahfRb-33">
          <mxGeometry relative="1" as="geometry" />
        </mxCell>
        <mxCell id="nzN_dOYvO_QeSlVahfRb-29" value="Tidak terdapat salah ketik" style="text;html=1;align=center;verticalAlign=middle;resizable=0;points=[];labelBackgroundColor=#ffffff;spacing=2;spacingRight=0;spacingLeft=37;" vertex="1" connectable="0" parent="nzN_dOYvO_QeSlVahfRb-28">
          <mxGeometry x="-0.3617" relative="1" as="geometry">
            <mxPoint as="offset" />
          </mxGeometry>
        </mxCell>
        <mxCell id="nzN_dOYvO_QeSlVahfRb-30" value="" style="rhombus;whiteSpace=wrap;html=1;fillColor=#ffffc0;strokeColor=#ff0000;" vertex="1" parent="1">
          <mxGeometry x="320" y="380" width="80" height="40" as="geometry" />
        </mxCell>
        <mxCell id="nzN_dOYvO_QeSlVahfRb-31" value="Terdapat salah ketik" style="edgeStyle=orthogonalEdgeStyle;html=1;align=center;verticalAlign=top;endArrow=open;endSize=8;strokeColor=#000000;entryX=0.5;entryY=0;entryDx=0;entryDy=0;spacing=25;" edge="1" parent="1" source="nzN_dOYvO_QeSlVahfRb-30" target="nzN_dOYvO_QeSlVahfRb-27">
          <mxGeometry x="-1" relative="1" as="geometry">
            <mxPoint x="360" y="500" as="targetPoint" />
          </mxGeometry>
        </mxCell>
        <mxCell id="nzN_dOYvO_QeSlVahfRb-32" style="edgeStyle=orthogonalEdgeStyle;rounded=0;orthogonalLoop=1;jettySize=auto;html=1;exitX=1;exitY=0.5;exitDx=0;exitDy=0;endArrow=classic;endFill=1;strokeColor=#000000;" edge="1" parent="1" source="nzN_dOYvO_QeSlVahfRb-33">
          <mxGeometry relative="1" as="geometry">
            <mxPoint x="819.9999999999998" y="400.0000000000002" as="targetPoint" />
          </mxGeometry>
        </mxCell>
        <mxCell id="nzN_dOYvO_QeSlVahfRb-33" value="Simpan data sementara" style="rounded=1;whiteSpace=wrap;html=1;arcSize=40;fontColor=#000000;fillColor=#ffffc0;strokeColor=#ff0000;" vertex="1" parent="1">
          <mxGeometry x="610" y="380" width="120" height="40" as="geometry" />
        </mxCell>
        <mxCell id="nzN_dOYvO_QeSlVahfRb-40" value="" style="ellipse;html=1;shape=endState;fillColor=#000000;strokeColor=#ff0000;" vertex="1" parent="1">
          <mxGeometry x="820" y="385" width="30" height="30" as="geometry" />
        </mxCell>
        <mxCell id="nzN_dOYvO_QeSlVahfRb-41" style="edgeStyle=orthogonalEdgeStyle;rounded=0;orthogonalLoop=1;jettySize=auto;html=1;exitX=1;exitY=0.5;exitDx=0;exitDy=0;entryX=0.5;entryY=1;entryDx=0;entryDy=0;endArrow=classic;endFill=1;" edge="1" parent="1" source="nzN_dOYvO_QeSlVahfRb-42" target="nzN_dOYvO_QeSlVahfRb-33">
          <mxGeometry relative="1" as="geometry" />
        </mxCell>
        <mxCell id="nzN_dOYvO_QeSlVahfRb-42" value="Mengkoreksi input user" style="rounded=1;whiteSpace=wrap;html=1;arcSize=40;fontColor=#000000;fillColor=#ffffc0;strokeColor=#ff0000;" vertex="1" parent="1">
          <mxGeometry x="500" y="510" width="120" height="40" as="geometry" />
        </mxCell>
      </root>
    </mxGraphModel>
  </diagram>
</mxfile>
